<svg width="46" height="46" viewBox="0 0 46 46" fill="none" xmlns="http://www.w3.org/2000/svg">
    <g clip-path="url(#clip0_1453_7690)">
        <path d="M15.1316 0V2.09091H11.5V3.88312H9.68421V5.67532H7.86842V7.46753H6.05263V9.25974L4.23684 9.19458V11.3506H2.11842V14.9351H0V31.0649H2.11842V34.6493H3.93421V36.4416H5.75V38.5325H7.86842V40.3247H9.68421V42.1169H11.5V43.9091H15.1316V46H31.4737V43.9091H35.4079V42.1169H37.2237V40.3247H39.0395V38.5325H40.8553V36.7403H42.6711V34.6493H44.4868V31.0929H46V14.9351H44.4868V11.3506H42.6711V9.55844H40.8553V7.76623H39.0395V5.97403H37.2237V3.88312H35.1053V2.09091H31.4737V0H15.1316Z" fill="#E28E13"/>
        <path d="M15.1316 2.0909V3.8831H11.5V5.67531H9.6842V7.46752H7.86841V9.25973H6.05262V11.3506H4.23683V14.9351H2.11841V31.0649H3.9342V34.6493H5.74999V36.4415H7.86841V38.5325H9.6842V40.3247H11.5V42.1169H15.1316V43.9091H31.4737V42.1169H35.4079V40.3247H37.2237V38.5325H39.0395V36.7402H40.8552V34.6493H42.671V31.0649H44.4868V14.9351H42.671V11.3506H40.8552V9.55843H39.0395V7.76622H37.2237V5.97401H35.1052V3.8831H31.4737V2.0909H15.1316Z" fill="#F6C016"/>
        <path d="M16.5893 4.48054V6.15257H13.6974V7.58573H12.2514V9.0189H10.8054V10.4521H9.35943V11.8852L7.91345 11.8331V13.5573H6.22647V16.4236H4.53949V29.3221H6.22647V32.1884H7.67245V33.6216H9.11844V35.2936H10.8054V36.7268H12.2514V38.16H13.6974V39.5931H16.5893V41.2652H29.6032V39.5931H32.7362V38.16H34.1821V36.7268H35.6281V35.2936H37.0741V33.8605H38.5201V32.1884H39.9661V29.3445H41.1711V16.4236H39.9661V13.5573H38.5201V12.1241H37.0741V10.6909H35.6281V9.25776H34.1821V7.58573H32.4952V6.15257H29.6032V4.48054H16.5893Z" fill="#FFE28E"/>
        <path d="M16.5027 6.05251V7.48078H13.6086V8.90905H12.1616V10.3373H10.7145V11.7656H9.26744V13.4319H7.82038V16.2884H6.13214V29.1428H7.5792V31.9994H9.02626V33.4276H10.7145V35.094H12.1616V36.5222H13.6086V37.9505H16.5027V39.3788H29.5263V37.9505H32.6616V36.5222H34.1087V35.094H35.5557V33.6657H37.0028V31.9994H38.4498V29.1428H39.8969V16.2884H38.4498V13.4319H37.0028V12.0036H35.5557V10.5754H34.1087V9.14709H32.4204V7.48078H29.5263V6.05251H16.5027Z" fill="#ED9E0E"/>
        <g clip-path="url(#clip1_1453_7690)">
            <path d="M18.5555 28.4074V27.2963H17.5185V26.2593H16.3333V25.1482H15.3704V22.9259H16.4074V21.8889H17.4444V20.7778H21.963V21.8148H23V19.6667H24.037V20.7778H25.2222V22.8519H26.1852V23.963V26.1852H25.1481V27.3704H22.9259V28.4074H18.5555Z" fill="white"/>
            <path d="M16.3333 18.5556V16.4815L17.3703 16.4815V18.5556H16.3333Z" fill="black" stroke="black"/>
            <path d="M17.5185 20.7037V18.6296H18.5555V20.7037H17.5185Z" fill="black" stroke="black"/>
            <path d="M16.3333 21.8148V20.7778H17.3703V21.8148H16.3333Z" fill="black" stroke="black"/>
            <path d="M20.8519 18.5556V17.5185H21.8889V18.5556H20.8519Z" fill="black" stroke="black"/>
            <path d="M17.5185 15.2963V14.2593H18.5555V15.2963H17.5185Z" fill="black" stroke="black"/>
            <path d="M20.7778 15.2963V14.2593H21.8148V15.2963H20.7778Z" fill="black" stroke="black"/>
            <path d="M21.8148 16.3333V15.2963H22.8519V16.3333H21.8148Z" fill="black" stroke="black"/>
            <path d="M22.8519 15.2963V14.2593H23.8889V15.2963H22.8519Z" fill="black" stroke="black"/>
            <path d="M23.8889 16.3333V15.2963H24.926V16.3333H23.8889Z" fill="black" stroke="black"/>
            <path d="M28.4815 18.4074V17.3704H29.5185V18.4074H28.4815Z" fill="black" stroke="black"/>
            <path d="M29.5185 19.4444V18.4074H30.5555V19.4444H29.5185Z" fill="black" stroke="black"/>
            <path d="M30.5555 20.4815V19.4445H31.5926V20.4815H30.5555Z" fill="black" stroke="black"/>
            <path d="M31.5926 21.5185V20.4815H32.6296V21.5185H31.5926Z" fill="black" stroke="black"/>
            <path d="M24.9259 17.3704V16.3333H28.4815V17.3704H24.9259Z" fill="black" stroke="black"/>
            <path d="M15.2963 22.8519V21.8148H16.3334V22.8519H15.2963Z" fill="black" stroke="black"/>
            <path d="M14.2593 23.8889V22.8519H15.2963V23.8889H14.2593Z" fill="black" stroke="black"/>
            <path d="M13.2222 24.9259V23.8889H14.2593V24.9259H13.2222Z" fill="black" stroke="black"/>
            <path d="M12.037 26.2593V24.9259H13.2222V26.2593H12.037Z" fill="black" stroke="black"/>
            <path d="M12.037 30.5556V29.5185H13.0741V30.5556H12.037Z" fill="black" stroke="black"/>
            <path d="M16.3333 30.5556V29.5185H17.3703V30.5556H16.3333Z" fill="black" stroke="black"/>
            <path d="M17.3704 29.5185V28.4815H23V29.5185H17.3704Z" fill="black" stroke="black"/>
            <path d="M13.0741 31.7407V30.5556H16.3334V31.7407H13.0741Z" fill="black" stroke="black"/>
            <path d="M11 29.5185V26.2593H12.037V29.5185H11Z" fill="black" stroke="black"/>
            <path d="M14.2593 28.3333V26.2593H15.2963V28.3333H14.2593Z" fill="black" stroke="black"/>
            <path d="M20.7778 31.7407V29.5185H21.8148V31.7407H20.7778Z" fill="black" stroke="black"/>
            <path d="M23 28.4815V27.4445H25.2222V28.4815H23Z" fill="black" stroke="black"/>
            <path d="M25.2222 27.4444V26.2593H26.2593V27.4444H25.2222Z" fill="black" stroke="black"/>
            <path d="M26.2593 26.2593V24.037H27.2963V26.2593H26.2593Z" fill="black" stroke="black"/>
            <path d="M29.6667 31.7407V30.7037H33.963V31.7407H29.6667Z" fill="black" stroke="black"/>
            <path d="M33.963 30.7037V25.2222H35V30.7037H33.963Z" fill="black" stroke="black"/>
            <path d="M32.7778 25.0741V21.6667H33.8148V25.0741H32.7778Z" fill="black" stroke="black"/>
            <path d="M15.2963 13.0741V16.3333H16.3334V14.1111H17.3704V13.0741H15.2963Z" fill="black" stroke="black"/>
            <path d="M20.7037 15.2963H18.5555V16.3333H19.6667V17.3704H20.7037V15.2963Z" fill="black" stroke="black"/>
            <path d="M20.7778 23H19.7407V23.963H21.8148V21.8889H20.7778V23Z" fill="black" stroke="black"/>
            <path d="M20.7777 20.7778V19.7408H21.8889V18.5556V17.5185H20.8518H20.7037V17.3704V15.2963H21.8148V16.3333H22.8518V15.2963H23.8889V16.3333H24.9259V17.3704H28.4815V18.4074H29.5185V19.4445H30.5555V20.4815H31.5926V21.5185H32.6296V21.6667H32.7777V25.0741H33.8148V25.2222H33.9629V30.7037H29.6666H29.5926V30.5556V29.5185H28.4815V28.4815H30.6296V27.2963H29.5185V26.2593H28.4815V25.0741H27.3703V23.963H26.1852V22.8519H25.2222V20.7778H24.037V19.6667H23V21.8148H21.9629V20.7778H20.7777Z" fill="#C513EB"/>
            <path d="M16.3333 25.1482H15.2963V23.963H14.3333V25H13.2963V26.3333H12.1111V29.4444H13.1481V30.4815H16.2592V29.4444H17.2963V28.4074H18.5555V27.2963H17.5185V26.2593H16.3333V25.1482Z" fill="#C513EB"/>
            <path d="M20.7778 20.7778H18.6296V18.5556H17.4444V16.2593H16.4074V14.1852H17.4444V15.3704H18.4815V16.4074H19.5926V17.4445H20.7778V18.6296H21.8889V19.7408H20.7778V20.7778Z" fill="#F0CE2B"/>
            <path d="M19.6667 21.8148H20.7037V22.9259H19.6667V21.8148Z" fill="#D9D9D9"/>
            <path d="M14.2593 27.4444V26.5556H15.1482V27.4444H14.2593Z" fill="black" stroke="black"/>
            <path d="M16.4074 15.3704V14.1852H17.4444V15.3704H16.4074Z" fill="#4DC9FF"/>
            <path d="M16.4074 16.4074V15.3704H17.4444V16.4074H16.4074Z" fill="#2AFA00"/>
            <path d="M17.4445 16.4074V15.3704H18.4815V16.4074H17.4445Z" fill="#25DB00"/>
            <path d="M17.4445 18.6296V17.4445H19.5926V18.6296H17.4445Z" fill="#FA9F02"/>
            <path d="M19.5926 18.6296V17.4445H20.7778V18.6296H19.5926Z" fill="#F21202"/>
            <path d="M19.5926 19.7407V18.6296H20.7778V19.7407H19.5926Z" fill="#C90F02"/>
            <path d="M20.7778 19.7407V18.6296H21.8889V19.7407H20.7778Z" fill="#910B01"/>
            <path d="M18.6296 20.7778V19.7408H20.7778V20.7778H18.6296Z" fill="#910B01"/>
            <path d="M18.6296 19.7407V18.6296H19.5926V19.7407H18.6296Z" fill="#F21202"/>
            <path d="M29.5926 31.8148H21.8889V29.5926H23.0741V28.5556H25.2963V27.5185H26.3334V26.3333H27.3704V25.0741H28.4815V26.2593H29.5185V27.2963H30.6297V28.4815H28.4815V29.5185H29.5926V31.8148Z" fill="white"/>
        </g>
    </g>
    <defs>
        <clipPath id="clip0_1453_7690">
            <rect width="46" height="46" fill="white"/>
        </clipPath>
        <clipPath id="clip1_1453_7690">
            <rect width="24" height="24" fill="white" transform="translate(11 11)"/>
        </clipPath>
    </defs>
</svg>
