<svg width="35" height="35" viewBox="0 0 35 35" fill="none" xmlns="http://www.w3.org/2000/svg">
    <g clip-path="url(#clip0_1377_7564)">
        <path d="M11.6842 0.5V2.04545H9V3.37013H7.65789V4.69481H6.31579V6.01948H4.97368V7.34416L3.63158 7.29599V8.88961H2.06579V11.539H0.5V23.461H2.06579V26.1104H3.40789V27.4351H4.75V28.9805H6.31579V30.3052H7.65789V31.6299H9V32.9545H11.6842V34.5H23.7632V32.9545H26.6711V31.6299H28.0132V30.3052H29.3553V28.9805H30.6974V27.6558H32.0395V26.1104H33.3816V23.4817H34.5V11.539H33.3816V8.88961H32.0395V7.56494H30.6974V6.24026H29.3553V4.91558H28.0132V3.37013H26.4474V2.04545H23.7632V0.5H11.6842Z" fill="#E28E13"/>
        <path d="M11.6842 2.04544V3.37012H9.00001V4.69479H7.6579V6.01947H6.3158V7.34414H4.97369V8.8896H3.63159V11.5389H2.0658V23.461H3.4079V26.1104H4.75001V27.4351H6.3158V28.9805H7.6579V30.3052H9.00001V31.6299H11.6842V32.9545H23.7632V31.6299H26.6711V30.3052H28.0132V28.9805H29.3553V27.6558H30.6974V26.1104H32.0395V23.461H33.3816V11.5389H32.0395V8.8896H30.6974V7.56492H29.3553V6.24025H28.0132V4.91557H26.4474V3.37012H23.7632V2.04544H11.6842Z" fill="#F6C016"/>
        <path d="M12.7617 3.81171V5.04755H10.6242V6.10685H9.55539V7.16615H8.48662V8.22545H7.41785V9.28475L6.34908 9.24623V10.5206H5.10218V12.6392H3.85529V22.1729H5.10218V24.2915H6.17095V25.3508H7.23972V26.5866H8.48662V27.6459H9.55539V28.7052H10.6242V29.7645H12.7617V31.0003H22.3806V29.7645H24.6963V28.7052H25.7651V27.6459H26.8338V26.5866H27.9026V25.5273H28.9714V24.2915H30.0402V22.1894H30.9308V12.6392H30.0402V10.5206H28.9714V9.46129H27.9026V8.402H26.8338V7.3427H25.7651V6.10685H24.5182V5.04755H22.3806V3.81171H12.7617Z" fill="#FFE28E"/>
        <path d="M12.6977 4.9736V6.02928H10.5586V7.08495H9.489V8.14063H8.41943V9.19631H7.34987V10.4279H6.2803V12.5393H5.03247V22.0404H6.10204V24.1517H7.1716V25.2074H8.41943V26.439H9.489V27.4947H10.5586V28.5504H12.6977V29.606H22.3238V28.5504H24.6412V27.4947H25.7108V26.439H26.7803V25.3833H27.8499V24.1517H28.9195V22.0404H29.989V12.5393H28.9195V10.4279H27.8499V9.37225H26.7803V8.31658H25.7108V7.2609H24.4629V6.02928H22.3238V4.9736H12.6977Z" fill="#ED9E0E"/>
        <path d="M7.6579 15.3334V13.9795H8.74851V15.875H9.56647V16.6874H8.74851V15.875H8.2032V15.3334H7.6579Z" fill="#D1810C"/>
        <path d="M12.3101 15.3334V13.9795H11.2194V15.875H10.4015V16.6874H11.2194V15.875H11.7648V15.3334H12.3101Z" fill="#D1810C"/>
        <path d="M7.6579 18.8654V20.2193H8.74851V18.3238H9.56647V17.5114H8.74851V18.3238H8.2032V18.8654H7.6579Z" fill="#D1810C"/>
        <path d="M12.3101 18.8654V20.2193H11.2194V18.3238H10.4015V17.5114H11.2194V18.3238H11.7648V18.8654H12.3101Z" fill="#D1810C"/>
        <path d="M9.56644 17.4996H10.3844V16.6873H9.56644V17.4996Z" fill="#D1810C"/>
        <path d="M14.1923 13.9675H12.8478V20.1604H17.5088V19.1282H14.1923V13.9675Z" fill="#D1810C"/>
        <path d="M17.1503 17.4952V13.9675H18.3795V18.1366H19.3015V19.0988H18.3795V18.1366H17.7649V17.4952H17.1503Z" fill="#D1810C"/>
        <path d="M21.9905 17.4953V13.9675H20.8637V18.1367H20.0185V19.0988H20.8637V18.1367H21.4271V17.4953H21.9905Z" fill="#D1810C"/>
        <path d="M20.0185 19.9835V19.0988H19.3014V19.9835H20.0185Z" fill="#D1810C"/>
        <path d="M23.7831 14.1445H22.5283V19.9834H23.7831V14.1445Z" fill="#D1810C"/>
        <path d="M27.1892 14.1445H25.9343V19.9834H27.1892V14.1445Z" fill="#D1810C"/>
        <path d="M23.7831 15.56H24.5002V16.2678H25.2173V16.9755H25.9343V17.6833H25.2173V16.9755H24.5002V16.2678H23.7831V15.56Z" fill="#D1810C"/>
        <path d="M8.03455 15.7052V14.3512H9.12516V16.2468H9.94312V17.0592H9.12516V16.2468H8.57985V15.7052H8.03455Z" fill="#FFF4D1"/>
        <path d="M12.6866 15.7052V14.3512H11.596V16.2468H10.778V17.0592H11.596V16.2468H12.1413V15.7052H12.6866Z" fill="#FFF4D1"/>
        <path d="M8.03448 19.2371V20.5911H9.1251V18.6955H9.94306V17.8831H9.1251V18.6955H8.57979V19.2371H8.03448Z" fill="#FFF4D1"/>
        <path d="M12.6866 19.2371V20.5911H11.596V18.6955H10.778V17.8831H11.596V18.6955H12.1413V19.2371H12.6866Z" fill="#FFF4D1"/>
        <path d="M9.94303 17.8714H10.761V17.059H9.94303V17.8714Z" fill="#FFF4D1"/>
        <path d="M14.569 14.3393H13.2245V20.5321H17.8854V19.5H14.569V14.3393Z" fill="#FFF4D1"/>
        <path d="M17.5269 17.867V14.3393H18.7562V18.5084H19.6781V19.4705H18.7562V18.5084H18.1415V17.867H17.5269Z" fill="#FFF4D1"/>
        <path d="M22.3671 17.867V14.3393H21.2403V18.5084H20.3952V19.4705H21.2403V18.5084H21.8037V17.867H22.3671Z" fill="#FFF4D1"/>
        <path d="M20.3952 20.3552V19.4705H19.6781V20.3552H20.3952Z" fill="#FFF4D1"/>
        <path d="M24.1598 14.5162H22.9049V20.3552H24.1598V14.5162Z" fill="#FFF4D1"/>
        <path d="M27.5658 14.5162H26.311V20.3552H27.5658V14.5162Z" fill="#FFF4D1"/>
        <path d="M24.1597 15.9317H24.8768V16.6395H25.5939V17.3472H26.3109V18.055H25.5939V17.3472H24.8768V16.6395H24.1597V15.9317Z" fill="#FFF4D1"/>
    </g>
    <defs>
        <clipPath id="clip0_1377_7564">
            <rect width="34" height="34" fill="white" transform="translate(0.5 0.5)"/>
        </clipPath>
    </defs>
</svg>
