<svg width="88" height="40" viewBox="0 0 88 40" fill="none" xmlns="http://www.w3.org/2000/svg">
    <g clip-path="url(#clip0_1453_7780)">
        <path d="M27.4074 29.0123V27.1605H29.1358V25.4321H31.1111V23.5802H32.7161V19.8765H30.9877V18.1481H29.2593V16.2963H21.7284V18.0247H20V14.4444H18.2716V16.2963H16.2963V19.7531H14.6914V21.6049V25.3086H16.4198V27.2839H20.1235V29.0123H27.4074Z" fill="white"/>
        <path d="M31.1111 12.5926V9.13581L29.3827 9.1358V12.5926H31.1111Z" fill="black" stroke="black"/>
        <path d="M29.1358 16.1728V12.716H27.4074V16.1728H29.1358Z" fill="black" stroke="black"/>
        <path d="M31.1111 18.0247V16.2963H29.3827V18.0247H31.1111Z" fill="black" stroke="black"/>
        <path d="M23.5803 12.5926V10.8642H21.8519V12.5926H23.5803Z" fill="black" stroke="black"/>
        <path d="M29.1358 7.16049V5.4321H27.4074V7.16049H29.1358Z" fill="black" stroke="black"/>
        <path d="M23.7037 7.16049V5.4321H21.9753V7.16049H23.7037Z" fill="black" stroke="black"/>
        <path d="M21.9753 8.88889V7.16049H20.2469V8.88889H21.9753Z" fill="black" stroke="black"/>
        <path d="M20.2469 7.16049V5.4321H18.5185V7.16049H20.2469Z" fill="black" stroke="black"/>
        <path d="M18.5185 8.88889V7.16049H16.7901V8.88889H18.5185Z" fill="black" stroke="black"/>
        <path d="M10.8642 12.3457V10.6173H9.1358V12.3457H10.8642Z" fill="black" stroke="black"/>
        <path d="M9.1358 14.0741V12.3457H7.40741V14.0741H9.1358Z" fill="black" stroke="black"/>
        <path d="M7.40741 15.8025V14.0741H5.67901V15.8025H7.40741Z" fill="black" stroke="black"/>
        <path d="M5.67902 17.5309V15.8025H3.95062V17.5309H5.67902Z" fill="black" stroke="black"/>
        <path d="M16.7901 10.6173V8.88889H10.8642V10.6173H16.7901Z" fill="black" stroke="black"/>
        <path d="M32.8395 19.7531V18.0247H31.1111V19.7531H32.8395Z" fill="black" stroke="black"/>
        <path d="M34.5679 21.4815V19.7531H32.8395V21.4815H34.5679Z" fill="black" stroke="black"/>
        <path d="M36.2963 23.2099V21.4815H34.5679V23.2099H36.2963Z" fill="black" stroke="black"/>
        <path d="M38.2716 25.4321V23.2099H36.2963V25.4321H38.2716Z" fill="black" stroke="black"/>
        <path d="M38.2716 32.5926V30.8642H36.5432V32.5926H38.2716Z" fill="black" stroke="black"/>
        <path d="M31.1111 32.5926V30.8642H29.3827V32.5926H31.1111Z" fill="black" stroke="black"/>
        <path d="M29.3827 30.8642V29.1358H20V30.8642H29.3827Z" fill="black" stroke="black"/>
        <path d="M36.5432 34.5679V32.5926H31.1111V34.5679H36.5432Z" fill="black" stroke="black"/>
        <path d="M40 30.8642V25.4321H38.2716V30.8642H40Z" fill="black" stroke="black"/>
        <path d="M34.5679 28.8889V25.4321H32.8395V28.8889H34.5679Z" fill="black" stroke="black"/>
        <path d="M23.7037 34.5679V30.8642H21.9753V34.5679H23.7037Z" fill="black" stroke="black"/>
        <path d="M20 29.1358V27.4074H16.2963V29.1358H20Z" fill="black" stroke="black"/>
        <path d="M16.2963 27.4074V25.4321H14.5679V27.4074H16.2963Z" fill="black" stroke="black"/>
        <path d="M14.5679 25.4321V21.7284H12.8395V25.4321H14.5679Z" fill="black" stroke="black"/>
        <path d="M8.88892 34.5679V32.8395H1.72842V34.5679H8.88892Z" fill="black" stroke="black"/>
        <path d="M1.72839 32.8395V23.7037H-3.8147e-06V32.8395H1.72839Z" fill="black" stroke="black"/>
        <path d="M3.70367 23.4568V17.7778H1.97528V23.4568H3.70367Z" fill="black" stroke="black"/>
        <path d="M32.8395 3.45679V8.88889H31.1111V5.18518H29.3827V3.45679H32.8395Z" fill="black" stroke="black"/>
        <path d="M23.8272 7.16049H27.4074V8.88889H25.5556V10.6173H23.8272V7.16049Z" fill="black" stroke="black"/>
        <path d="M23.7037 20H25.4321V21.6049H21.9753V18.1481H23.7037V20Z" fill="black" stroke="black"/>
        <path d="M23.7037 16.2963V14.5679H21.8518V12.5926V10.8642H23.5802H23.8271V10.6173V7.16049H21.9753V8.88889H20.2469V7.16049H18.5185V8.88889H16.7901V10.6173H10.8642V12.3457H9.13579V14.0741H7.40739V15.8025H5.679V17.5309H3.9506V17.7778H3.70369V23.4568H1.9753V23.7037H1.72838V32.8395H8.88888H9.01233V32.5926V30.8642H10.8642V29.1358H7.28394V27.1605H9.13579V25.4321H10.8642V23.4568H12.716V21.6049H14.6913V19.7531H16.2963V16.2963H18.2716V14.4444H20V18.0247H21.7284V16.2963H23.7037Z" fill="#C513EB"/>
        <path d="M31.1111 23.5802H32.8395V21.6049H34.4444V23.3333H36.1728V25.5556H38.1481V30.7407H36.4197V32.4691H31.2346V30.7407H29.5062V29.0123H27.4074V27.1605H29.1358V25.4321H31.1111V23.5802Z" fill="#C513EB"/>
        <path d="M23.7037 16.2963H27.284V12.5926H29.2593V8.76543H30.9877V5.30864H29.2593V7.28395H27.5309V9.01234H25.679V10.7407H23.7037V12.716H21.8519V14.5679H23.7037V16.2963Z" fill="#F0CE2B"/>
        <path d="M25.5555 18.0247H23.8271V19.8765H25.5555V18.0247Z" fill="#D9D9D9"/>
        <path d="M34.5679 27.4074V25.9259H33.0864V27.4074H34.5679Z" fill="black" stroke="black"/>
        <path d="M30.9877 7.28395V5.30864H29.2593V7.28395H30.9877Z" fill="#4DC9FF"/>
        <path d="M30.9877 9.01235V7.28395H29.2593V9.01235H30.9877Z" fill="#2AFA00"/>
        <path d="M29.2593 9.01235V7.28395H27.5309V9.01235H29.2593Z" fill="#25DB00"/>
        <path d="M29.2593 12.716V10.7407H25.679V12.716H29.2593Z" fill="#FA9F02"/>
        <path d="M25.679 12.716V10.7407H23.7037V12.716H25.679Z" fill="#F21202"/>
        <path d="M25.679 14.5679V12.716H23.7037V14.5679H25.679Z" fill="#C90F02"/>
        <path d="M23.7037 14.5679V12.716H21.8519V14.5679H23.7037Z" fill="#910B01"/>
        <path d="M27.2839 16.2963V14.5679H23.7037V16.2963H27.2839Z" fill="#910B01"/>
        <path d="M27.2839 14.5679V12.716H25.679V14.5679H27.2839Z" fill="#F21202"/>
        <path d="M9.01236 34.6914H21.8519V30.9877H19.8766V29.2593H16.1729V27.5309H14.4445V25.5556H12.7161V23.4568H10.8642V25.4321H9.13582V27.1605H7.28397V29.1358H10.8642V30.8642H9.01236V34.6914Z" fill="white"/>
    </g>
    <g clip-path="url(#clip1_1453_7780)">
        <path d="M60.5926 29.0123V27.1605H58.8642V25.4321H56.8889V23.5802H55.2839V19.8765H57.0123V18.1481H58.7407V16.2963H66.2716V18.0247H68V14.4444H69.7284V16.2963H71.7037V19.7531H73.3086V21.6049V25.3086H71.5802V27.2839H67.8765V29.0123H60.5926Z" fill="white"/>
        <path d="M56.8889 12.5926V9.13581L58.6173 9.1358V12.5926H56.8889Z" fill="black" stroke="black"/>
        <path d="M58.8642 16.1728V12.716H60.5926V16.1728H58.8642Z" fill="black" stroke="black"/>
        <path d="M56.8889 18.0247V16.2963H58.6173V18.0247H56.8889Z" fill="black" stroke="black"/>
        <path d="M64.4197 12.5926V10.8642H66.1481V12.5926H64.4197Z" fill="black" stroke="black"/>
        <path d="M58.8642 7.16049V5.4321H60.5926V7.16049H58.8642Z" fill="black" stroke="black"/>
        <path d="M64.2963 7.16049V5.4321H66.0247V7.16049H64.2963Z" fill="black" stroke="black"/>
        <path d="M66.0247 8.88889V7.16049H67.7531V8.88889H66.0247Z" fill="black" stroke="black"/>
        <path d="M67.7531 7.16049V5.4321H69.4815V7.16049H67.7531Z" fill="black" stroke="black"/>
        <path d="M69.4815 8.88889V7.16049H71.2099V8.88889H69.4815Z" fill="black" stroke="black"/>
        <path d="M77.1358 12.3457V10.6173H78.8642V12.3457H77.1358Z" fill="black" stroke="black"/>
        <path d="M78.8642 14.0741V12.3457H80.5926V14.0741H78.8642Z" fill="black" stroke="black"/>
        <path d="M80.5926 15.8025V14.0741H82.321V15.8025H80.5926Z" fill="black" stroke="black"/>
        <path d="M82.321 17.5309V15.8025H84.0494V17.5309H82.321Z" fill="black" stroke="black"/>
        <path d="M71.2099 10.6173V8.88889H77.1358V10.6173H71.2099Z" fill="black" stroke="black"/>
        <path d="M55.1605 19.7531V18.0247H56.8889V19.7531H55.1605Z" fill="black" stroke="black"/>
        <path d="M53.4321 21.4815V19.7531H55.1605V21.4815H53.4321Z" fill="black" stroke="black"/>
        <path d="M51.7037 23.2099V21.4815H53.4321V23.2099H51.7037Z" fill="black" stroke="black"/>
        <path d="M49.7284 25.4321V23.2099H51.7037V25.4321H49.7284Z" fill="black" stroke="black"/>
        <path d="M49.7284 32.5926V30.8642H51.4568V32.5926H49.7284Z" fill="black" stroke="black"/>
        <path d="M56.8889 32.5926V30.8642H58.6173V32.5926H56.8889Z" fill="black" stroke="black"/>
        <path d="M58.6173 30.8642V29.1358H68V30.8642H58.6173Z" fill="black" stroke="black"/>
        <path d="M51.4568 34.5679V32.5926H56.8889V34.5679H51.4568Z" fill="black" stroke="black"/>
        <path d="M48 30.8642V25.4321H49.7284V30.8642H48Z" fill="black" stroke="black"/>
        <path d="M53.4321 28.8889V25.4321H55.1605V28.8889H53.4321Z" fill="black" stroke="black"/>
        <path d="M64.2963 34.5679V30.8642H66.0247V34.5679H64.2963Z" fill="black" stroke="black"/>
        <path d="M68 29.1358V27.4074H71.7037V29.1358H68Z" fill="black" stroke="black"/>
        <path d="M71.7037 27.4074V25.4321H73.4321V27.4074H71.7037Z" fill="black" stroke="black"/>
        <path d="M73.4321 25.4321V21.7284H75.1605V25.4321H73.4321Z" fill="black" stroke="black"/>
        <path d="M79.1111 34.5679V32.8395H86.2716V34.5679H79.1111Z" fill="black" stroke="black"/>
        <path d="M86.2716 32.8395V23.7037H88V32.8395H86.2716Z" fill="black" stroke="black"/>
        <path d="M84.2963 23.4568V17.7778H86.0247V23.4568H84.2963Z" fill="black" stroke="black"/>
        <path d="M55.1605 3.45679V8.88889H56.8889V5.18518H58.6173V3.45679H55.1605Z" fill="black" stroke="black"/>
        <path d="M64.1728 7.16049H60.5926V8.88889H62.4444V10.6173H64.1728V7.16049Z" fill="black" stroke="black"/>
        <path d="M64.2963 20H62.5679V21.6049H66.0247V18.1481H64.2963V20Z" fill="black" stroke="black"/>
        <path d="M64.2963 16.2963V14.5679H66.1482V12.5926V10.8642H64.4198H64.1729V10.6173V7.16049H66.0247V8.88889H67.7531V7.16049H69.4815V8.88889H71.2099V10.6173H77.1358V12.3457H78.8642V14.0741H80.5926V15.8025H82.321V17.5309H84.0494V17.7778H84.2963V23.4568H86.0247V23.7037H86.2716V32.8395H79.1111H78.9877V32.5926V30.8642H77.1358V29.1358H80.7161V27.1605H78.8642V25.4321H77.1358V23.4568H75.284V21.6049H73.3087V19.7531H71.7037V16.2963H69.7284V14.4444H68V18.0247H66.2716V16.2963H64.2963Z" fill="#FF0000"/>
        <path d="M56.8889 23.5802H55.1605V21.6049H53.5556V23.3333H51.8272V25.5556H49.8519V30.7407H51.5803V32.4691H56.7654V30.7407H58.4938V29.0123H60.5926V27.1605H58.8642V25.4321H56.8889V23.5802Z" fill="#C513EB"/>
        <path d="M64.2963 16.2963H60.716V12.5926H58.7407V8.76543H57.0123V5.30864H58.7407V7.28395H60.4691V9.01234H62.321V10.7407H64.2963V12.716H66.1481V14.5679H64.2963V16.2963Z" fill="#F0CE2B"/>
        <path d="M62.4445 18.0247H64.1729V19.8765H62.4445V18.0247Z" fill="#D9D9D9"/>
        <path d="M53.4321 27.4074V25.9259H54.9136V27.4074H53.4321Z" fill="black" stroke="black"/>
        <path d="M57.0123 7.28395V5.30864H58.7407V7.28395H57.0123Z" fill="#4DC9FF"/>
        <path d="M57.0123 9.01235V7.28395H58.7407V9.01235H57.0123Z" fill="#2AFA00"/>
        <path d="M58.7407 9.01235V7.28395H60.4691V9.01235H58.7407Z" fill="#25DB00"/>
        <path d="M58.7407 12.716V10.7407H62.321V12.716H58.7407Z" fill="#FA9F02"/>
        <path d="M62.321 12.716V10.7407H64.2963V12.716H62.321Z" fill="#F21202"/>
        <path d="M62.321 14.5679V12.716H64.2963V14.5679H62.321Z" fill="#C90F02"/>
        <path d="M64.2963 14.5679V12.716H66.1481V14.5679H64.2963Z" fill="#910B01"/>
        <path d="M60.7161 16.2963V14.5679H64.2963V16.2963H60.7161Z" fill="#910B01"/>
        <path d="M60.7161 14.5679V12.716H62.321V14.5679H60.7161Z" fill="#F21202"/>
        <path d="M78.9876 34.6914H66.1481V30.9877H68.1234V29.2593H71.8271V27.5309H73.5555V25.5556H75.2839V23.4568H77.1358V25.4321H78.8642V27.1605H80.716V29.1358H77.1358V30.8642H78.9876V34.6914Z" fill="white"/>
    </g>
    <defs>
        <clipPath id="clip0_1453_7780">
            <rect width="40" height="40" fill="white" transform="matrix(-1 0 0 1 40 0)"/>
        </clipPath>
        <clipPath id="clip1_1453_7780">
            <rect width="40" height="40" fill="white" transform="translate(48)"/>
        </clipPath>
    </defs>
</svg>
