<svg width="34" height="35" viewBox="0 0 34 35" fill="none" xmlns="http://www.w3.org/2000/svg">
    <g clip-path="url(#clip0_1624_29846)">
        <path d="M10.4006 14.7864L17.004 8.18565L23.6101 14.7918L27.4503 10.9489L17.004 0.5L6.55777 10.9463L10.4006 14.7864Z" fill="#F3BA2F"/>
        <path d="M0 17.5014L3.84014 13.6586L7.68296 17.5014L3.84014 21.3415L0 17.5014Z" fill="#F3BA2F"/>
        <path d="M10.4006 20.2136L17.004 26.8171L23.6101 20.2109L27.453 24.0484L17.0067 34.4973L6.55777 24.0564L10.4006 20.2136Z" fill="#F3BA2F"/>
        <path d="M26.317 17.5014L30.1572 13.6586L34 17.4987L30.1572 21.3442L26.317 17.5014Z" fill="#F3BA2F"/>
        <path d="M20.9005 17.4987L17.004 13.5995L14.1226 16.4809L13.7896 16.8112L13.1075 17.4933L17.004 21.3872L20.9005 17.5014V17.4987Z" fill="#F3BA2F"/>
    </g>
    <defs>
        <clipPath id="clip0_1624_29846">
            <rect width="34" height="34" fill="white" transform="translate(0 0.5)"/>
        </clipPath>
    </defs>
</svg>
