<svg width="34" height="35" viewBox="0 0 34 35" fill="none" xmlns="http://www.w3.org/2000/svg">
    <path d="M24.233 20.4572V11.72H25.9893V20.4572H24.233Z" fill="#F7A600"/>
    <path d="M3.76501 23.0525H0V14.3153H3.61377C5.37005 14.3153 6.39317 15.2728 6.39317 16.7696C6.39317 17.7388 5.73584 18.3652 5.28094 18.5739C5.82416 18.8189 6.51901 19.3711 6.51901 20.5373C6.51901 22.1689 5.37005 23.0525 3.76501 23.0525ZM3.47464 15.8371H1.75628V17.8497H3.47425C4.21952 17.8497 4.63651 17.4449 4.63651 16.843C4.63651 16.2424 4.21991 15.8371 3.47464 15.8371ZM3.58798 19.3837H1.75667V21.5315H3.58876C4.38483 21.5315 4.76313 21.0407 4.76313 20.4513C4.76313 19.8624 4.38405 19.3837 3.58876 19.3837H3.58798ZM11.8758 19.4696V23.0525H10.132V19.4696L7.42802 14.3153H9.33593L11.0164 17.8372L12.6714 14.3153H14.579L11.8758 19.4696ZM19.5582 23.0525H15.7932V14.3153H19.4066C21.1629 14.3153 22.1864 15.2728 22.1864 16.7696C22.1864 17.7388 21.529 18.3652 21.0741 18.5739C21.6174 18.8189 22.3122 19.3711 22.3122 20.5373C22.3122 22.1689 21.1632 23.0525 19.5582 23.0525ZM19.2678 15.8371H17.5495V17.8497H19.2678C20.0131 17.8497 20.4301 17.4449 20.4301 16.843C20.4301 16.2424 20.0131 15.8371 19.2678 15.8371ZM19.3812 19.3837H17.5491V21.5315H19.3812C20.1776 21.5315 20.5559 21.0407 20.5559 20.4513C20.5559 19.8624 20.1776 19.3837 19.3812 19.3837ZM31.6497 15.8375V23.0533H29.8934V15.8371H27.5439V14.3153H34V15.8371L31.6497 15.8375Z" fill="white"/>
</svg>
