<svg width="34" height="35" viewBox="0 0 34 35" fill="none" xmlns="http://www.w3.org/2000/svg">
<path d="M9.97206 12.4H0.226608C0.166507 12.4 0.108865 12.4239 0.0663841 12.4664C0.023858 12.5089 0 12.5665 0 12.6267V22.3721C0 22.4322 0.023858 22.4899 0.0663841 22.5324C0.108865 22.5749 0.166507 22.5987 0.226608 22.5987H9.97206C10.0322 22.5987 10.0898 22.5749 10.1323 22.5324C10.1749 22.4899 10.1987 22.4322 10.1987 22.3721V12.6267C10.1987 12.5665 10.1749 12.5089 10.1323 12.4664C10.0898 12.4239 10.0322 12.4 9.97206 12.4ZM6.79913 18.9725C6.79913 19.0326 6.77527 19.0903 6.73274 19.1328C6.69026 19.1753 6.63262 19.1992 6.57252 19.1992H3.62619C3.56609 19.1992 3.50845 19.1753 3.46592 19.1328C3.42344 19.0903 3.39959 19.0326 3.39959 18.9725V16.0262C3.39959 15.9661 3.42344 15.9085 3.46592 15.866C3.50845 15.8235 3.56609 15.7996 3.62619 15.7996H6.57252C6.63262 15.7996 6.69026 15.8235 6.73274 15.866C6.77527 15.9085 6.79913 15.9661 6.79913 16.0262V18.9725Z" fill="white"/>
<path d="M30.3752 15.7999H27.4289C27.3038 15.7999 27.2023 15.9014 27.2023 16.0265V18.9729C27.2023 19.098 27.3038 19.1995 27.4289 19.1995H30.3752C30.5004 19.1995 30.6019 19.098 30.6019 18.9729V16.0265C30.6019 15.9014 30.5004 15.7999 30.3752 15.7999Z" fill="white"/>
<path d="M26.9742 12.4003H24.0279C23.9028 12.4003 23.8013 12.5017 23.8013 12.6269V15.5732C23.8013 15.6984 23.9028 15.7999 24.0279 15.7999H26.9742C27.0994 15.7999 27.2009 15.6984 27.2009 15.5732V12.6269C27.2009 12.5017 27.0994 12.4003 26.9742 12.4003Z" fill="white"/>
<path d="M33.7734 12.4003H30.8271C30.7019 12.4003 30.6004 12.5017 30.6004 12.6269V15.5732C30.6004 15.6984 30.7019 15.7999 30.8271 15.7999H33.7734C33.8985 15.7999 34 15.6984 34 15.5732V12.6269C34 12.5017 33.8985 12.4003 33.7734 12.4003Z" fill="white"/>
<path d="M26.9742 19.1995H24.0279C23.9028 19.1995 23.8013 19.3009 23.8013 19.4261V22.3724C23.8013 22.4976 23.9028 22.5991 24.0279 22.5991H26.9742C27.0994 22.5991 27.2009 22.4976 27.2009 22.3724V19.4261C27.2009 19.3009 27.0994 19.1995 26.9742 19.1995Z" fill="white"/>
<path d="M33.7734 19.1995H30.8271C30.7019 19.1995 30.6004 19.3009 30.6004 19.4261V22.3724C30.6004 22.4976 30.7019 22.5991 30.8271 22.5991H33.7734C33.8985 22.5991 34 22.4976 34 22.3724V19.4261C34 19.3009 33.8985 19.1995 33.7734 19.1995Z" fill="white"/>
<path d="M21.8706 12.4003H18.9243C18.7991 12.4003 18.6976 12.5017 18.6976 12.6269V15.5732C18.6976 15.6984 18.7991 15.7999 18.9243 15.7999H21.8706C21.9957 15.7999 22.0972 15.6984 22.0972 15.5732V12.6269C22.0972 12.5017 21.9957 12.4003 21.8706 12.4003Z" fill="white"/>
<path d="M21.8706 19.1995H18.9243C18.7991 19.1995 18.6976 19.3009 18.6976 19.4261V22.3724C18.6976 22.4976 18.7991 22.5991 18.9243 22.5991H21.8706C21.9957 22.5991 22.0972 22.4976 22.0972 22.3724V19.4261C22.0972 19.3009 21.9957 19.1995 21.8706 19.1995Z" fill="white"/>
<path d="M18.6977 16.0237C18.6977 15.9636 18.6738 15.9059 18.6313 15.8634C18.5888 15.8209 18.5311 15.7971 18.471 15.7971H15.2981V12.6267C15.2981 12.5665 15.2742 12.5089 15.2317 12.4664C15.1892 12.4239 15.1315 12.4 15.0714 12.4H12.1252C12.065 12.4 12.0074 12.4239 11.9649 12.4664C11.9224 12.5089 11.8985 12.5665 11.8985 12.6267V22.367C11.8985 22.4271 11.9224 22.4848 11.9649 22.5273C12.0074 22.5698 12.065 22.5936 12.1252 22.5936H15.0714C15.1315 22.5936 15.1892 22.5698 15.2317 22.5273C15.2742 22.4848 15.2981 22.4271 15.2981 22.367V19.1966H18.471C18.5311 19.1966 18.5888 19.1727 18.6313 19.1303C18.6738 19.0877 18.6977 19.0301 18.6977 18.97V16.0237Z" fill="white"/>
</svg>
