<svg width="24" height="17" viewBox="0 0 24 17" fill="none" xmlns="http://www.w3.org/2000/svg">
    <path d="M23.5864 16.362H0.414116C0.185601 16.362 0.000305176 16.1768 0.000305176 15.9482V1.05175C0.000305176 0.823235 0.185601 0.637939 0.414116 0.637939H23.5864C23.815 0.637939 24.0003 0.823235 24.0003 1.05175V15.9482C24.0002 16.1768 23.8149 16.362 23.5864 16.362Z" fill="#41479B"/>
    <path d="M24.0002 1.05175C24.0002 0.823235 23.8149 0.637939 23.5864 0.637939H21.7351L14.0692 5.66044V0.637939H9.93125V5.66044L2.26539 0.637939H0.414116C0.185601 0.637939 0.000305176 0.823235 0.000305176 1.05175V2.12195L6.57726 6.43101H0.000305176V10.5689H6.57726L0.000305176 14.878V15.9482C0.000305176 16.1768 0.185601 16.362 0.414116 16.362H2.26544L9.93134 11.3396V16.362H14.0693V11.3396L21.7352 16.362H23.5865C23.815 16.362 24.0003 16.1768 24.0003 15.9482V14.878L17.4233 10.569H24.0002V6.43106H17.4233L24.0002 2.12195V1.05175Z" fill="#F5F5F5"/>
    <path d="M24.0002 7.25863H13.2416V0.637939H10.7589V7.25863H0.000305176V9.74136H10.7589V16.362H13.2416V9.74136H24.0002V7.25863Z" fill="#FF4B55"/>
    <path d="M8.3886 10.569L0.0121613 16.0063C0.041458 16.2061 0.206223 16.3621 0.414207 16.3621H0.984157L9.90865 10.569H8.3886V10.569Z" fill="#FF4B55"/>
    <path d="M16.2375 10.569H14.7174L23.6289 16.3535C23.8366 16.3314 24.0006 16.1618 24.0006 15.9482V15.608L16.2375 10.569Z" fill="#FF4B55"/>
    <path d="M0.000610352 1.50859L7.58397 6.4311H9.10403L0.241688 0.678345C0.100126 0.74411 0.000610352 0.885437 0.000610352 1.0518V1.50859Z" fill="#FF4B55"/>
    <path d="M15.5897 6.43113L23.9862 0.980669C23.9513 0.787451 23.7901 0.638062 23.5868 0.638062H22.994L14.0696 6.43113H15.5897Z" fill="#FF4B55"/>
</svg>
