<svg width="24" height="17" viewBox="0 0 24 17" fill="none" xmlns="http://www.w3.org/2000/svg">
    <path d="M0.41462 16.3621H23.587C23.8155 16.3621 24.0008 16.1768 24.0008 15.9483V1.05175C24.0008 0.823236 23.8155 0.637939 23.587 0.637939H0.41462C0.186105 0.637986 0.000808716 0.823236 0.000808716 1.05175V15.9483C0.000808716 16.1768 0.186105 16.3621 0.41462 16.3621Z" fill="#C8414B"/>
    <path d="M24.0008 3.94849H0.000808716V13.0521H24.0008V3.94849Z" fill="#FFD250"/>
    <path d="M10.1386 8.50005L10.4895 6.92125C10.5218 6.77585 10.4112 6.63794 10.2622 6.63794H10.0151C9.86615 6.63794 9.75552 6.77585 9.78777 6.92125L10.1386 8.50005Z" fill="#C8414B"/>
    <path d="M10.5525 7.67224H9.72495V11.1893H10.5525V7.67224Z" fill="#F5F5F5"/>
    <path d="M10.7591 7.25879H9.5177V7.6726H10.7591V7.25879Z" fill="#FAB446"/>
    <path d="M10.7602 8.5H8.69118V8.91381H10.7602V8.5Z" fill="#C8414B"/>
    <path d="M10.7602 10.1552L9.51877 9.74145V9.32764L10.7602 9.74145V10.1552Z" fill="#C8414B"/>
    <path d="M3.93257 8.50005L4.28343 6.92125C4.31578 6.77585 4.20511 6.63794 4.05614 6.63794H3.80901C3.66009 6.63794 3.54947 6.77585 3.58172 6.92125L3.93257 8.50005Z" fill="#C8414B"/>
    <path d="M5.38024 7.25867C5.15173 7.25867 4.96643 7.44396 4.96643 7.67248V10.3621C4.96643 10.8648 5.43565 11.8104 7.0354 11.8104C8.63514 11.8104 9.10436 10.8649 9.10436 10.3621V7.67248C9.10436 7.44396 8.91906 7.25867 8.69055 7.25867H5.38024Z" fill="#F5F5F5"/>
    <path d="M7.03599 9.32763H4.96703V7.67248C4.96703 7.44396 5.15232 7.25867 5.38084 7.25867H7.03599V9.32763Z" fill="#C8414B"/>
    <path d="M7.03604 9.32764H9.10501V10.3621C9.10501 10.9335 8.64188 11.3966 8.07052 11.3966C7.49917 11.3966 7.03604 10.9335 7.03604 10.3621V9.32764Z" fill="#C8414B"/>
    <path d="M4.96643 9.32764H7.0354V10.3621C7.0354 10.9335 6.57227 11.3966 6.00091 11.3966C5.42955 11.3966 4.96643 10.9335 4.96643 10.3621V9.32764Z" fill="#FAB446"/>
    <path d="M6.62074 11.1851V9.32764H6.20692V11.3757C6.36086 11.3445 6.49994 11.2764 6.62074 11.1851Z" fill="#C8414B"/>
    <path d="M5.79315 11.3757V9.32764H5.37933V11.1851C5.50018 11.2764 5.63926 11.3445 5.79315 11.3757Z" fill="#C8414B"/>
    <path d="M6.62156 8.50012H5.38017V8.91394H6.62156V8.50012Z" fill="#FFB441"/>
    <path d="M6.62156 7.67224H5.38017V8.08605H6.62156V7.67224Z" fill="#FAB446"/>
    <path d="M6.41417 7.91833H5.58659V8.66796H6.41417V7.91833Z" fill="#FAB446"/>
    <path d="M4.34532 7.67224H3.51775V11.1893H4.34532V7.67224Z" fill="#F5F5F5"/>
    <path d="M4.55161 10.983H3.31023V11.3968H4.55161V10.983Z" fill="#FAB446"/>
    <path d="M4.55161 7.25879H3.31023V7.6726H4.55161V7.25879Z" fill="#FAB446"/>
    <path d="M4.75957 11.3965H3.10442V11.8103H4.75957V11.3965Z" fill="#5064AA"/>
    <path d="M10.9663 10.983H9.72495V11.3968H10.9663V10.983Z" fill="#FAB446"/>
    <path d="M10.9661 11.3965H9.31094V11.8103H10.9661V11.3965Z" fill="#5064AA"/>
    <path d="M8.27678 6.84497H5.79401V7.25878H8.27678V6.84497Z" fill="#FAB446"/>
    <path d="M7.24241 5.60364H6.8286V6.84503H7.24241V5.60364Z" fill="#FFB441"/>
    <path d="M6.62143 6.22425C6.27915 6.22425 6.00076 5.94581 6.00076 5.60358C6.00076 5.2613 6.2792 4.98291 6.62143 4.98291C6.96371 4.98291 7.2421 5.26135 7.2421 5.60358C7.24215 5.94581 6.96371 6.22425 6.62143 6.22425ZM6.62143 5.39668C6.50729 5.39668 6.41453 5.48939 6.41453 5.60358C6.41453 5.71772 6.50725 5.81049 6.62143 5.81049C6.73562 5.81049 6.82834 5.71777 6.82834 5.60358C6.82834 5.48944 6.73562 5.39668 6.62143 5.39668Z" fill="#F5F5F5"/>
    <path d="M7.44902 6.22425C7.10674 6.22425 6.82835 5.94581 6.82835 5.60358C6.82835 5.2613 7.10679 4.98291 7.44902 4.98291C7.79131 4.98291 8.0697 5.26135 8.0697 5.60358C8.0697 5.94581 7.79126 6.22425 7.44902 6.22425ZM7.44902 5.39668C7.33488 5.39668 7.24212 5.48939 7.24212 5.60358C7.24212 5.71772 7.33484 5.81049 7.44902 5.81049C7.56317 5.81049 7.65593 5.71777 7.65593 5.60358C7.65588 5.48944 7.56317 5.39668 7.44902 5.39668Z" fill="#F5F5F5"/>
    <path d="M8.27669 6.63807C7.93441 6.63807 7.65602 6.35963 7.65602 6.0174C7.65602 5.67512 7.93446 5.39673 8.27669 5.39673C8.61897 5.39673 8.89736 5.67517 8.89736 6.0174C8.89736 6.35963 8.61893 6.63807 8.27669 6.63807ZM8.27669 5.81049C8.16255 5.81049 8.06979 5.90321 8.06979 6.0174C8.06979 6.13154 8.1625 6.2243 8.27669 6.2243C8.39083 6.2243 8.4836 6.13159 8.4836 6.0174C8.4836 5.90321 8.39083 5.81049 8.27669 5.81049Z" fill="#F5F5F5"/>
    <path d="M5.79384 6.63807C5.45156 6.63807 5.17317 6.35963 5.17317 6.0174C5.17317 5.67512 5.45161 5.39673 5.79384 5.39673C6.13612 5.39673 6.41451 5.67517 6.41451 6.0174C6.41456 6.35963 6.13612 6.63807 5.79384 6.63807ZM5.79384 5.81049C5.6797 5.81049 5.58694 5.90321 5.58694 6.0174C5.58694 6.13154 5.67966 6.2243 5.79384 6.2243C5.90803 6.2243 6.00075 6.13154 6.00075 6.01735C6.00075 5.90321 5.90803 5.81049 5.79384 5.81049Z" fill="#F5F5F5"/>
    <path d="M8.27655 10.1552V10.3621C8.27655 10.4762 8.18374 10.569 8.06965 10.569C7.95555 10.569 7.86274 10.4762 7.86274 10.3621V10.1552H8.27655ZM8.69032 9.74146H7.44893V10.3621C7.44893 10.7044 7.72737 10.9828 8.0696 10.9828C8.41188 10.9828 8.69027 10.7044 8.69027 10.3621V9.74146H8.69032Z" fill="#FAB446"/>
    <path d="M8.06983 8.91392C7.84132 8.91392 7.65602 8.72863 7.65602 8.50011V8.0863C7.65602 7.85778 7.84132 7.67249 8.06983 7.67249C8.29835 7.67249 8.48364 7.85778 8.48364 8.0863V8.50011C8.48364 8.72863 8.29835 8.91392 8.06983 8.91392Z" fill="#FFA0D2"/>
    <path d="M7.03527 9.94813C7.37806 9.94813 7.65594 9.67024 7.65594 9.32746C7.65594 8.98467 7.37806 8.70679 7.03527 8.70679C6.69248 8.70679 6.4146 8.98467 6.4146 9.32746C6.4146 9.67024 6.69248 9.94813 7.03527 9.94813Z" fill="#5064AA"/>
    <path d="M7.24241 4.77588H6.8286V6.01727H7.24241V4.77588Z" fill="#FAB446"/>
    <path d="M5.79374 6.8449L5.37993 6.43109L5.62232 6.1887C5.99699 5.81403 6.50521 5.60352 7.03513 5.60352C7.56505 5.60352 8.07322 5.81403 8.44794 6.1887L8.69033 6.43109L8.27652 6.8449H5.79374Z" fill="#C8414B"/>
    <path d="M7.03476 6.63793C7.14903 6.63793 7.24166 6.5453 7.24166 6.43103C7.24166 6.31676 7.14903 6.22412 7.03476 6.22412C6.92049 6.22412 6.82785 6.31676 6.82785 6.43103C6.82785 6.5453 6.92049 6.63793 7.03476 6.63793Z" fill="#FFD250"/>
    <path d="M6.20692 6.63793C6.32119 6.63793 6.41383 6.5453 6.41383 6.43103C6.41383 6.31676 6.32119 6.22412 6.20692 6.22412C6.09265 6.22412 6.00002 6.31676 6.00002 6.43103C6.00002 6.5453 6.09265 6.63793 6.20692 6.63793Z" fill="#FFD250"/>
    <path d="M7.8621 6.63793C7.97637 6.63793 8.06901 6.5453 8.06901 6.43103C8.06901 6.31676 7.97637 6.22412 7.8621 6.22412C7.74783 6.22412 7.6552 6.31676 7.6552 6.43103C7.6552 6.5453 7.74783 6.63793 7.8621 6.63793Z" fill="#FFD250"/>
    <path d="M5.37929 8.50012H3.31023V8.91393H5.37929V8.50012Z" fill="#C8414B"/>
    <path d="M3.31023 10.1552L4.55157 9.74145V9.32764L3.31023 9.74145V10.1552Z" fill="#C8414B"/>
</svg>
