<svg width="24" height="17" viewBox="0 0 24 17" fill="none" xmlns="http://www.w3.org/2000/svg">
    <path d="M24.0002 5.87935H0.000289917V1.05175C0.000289917 0.823236 0.185586 0.637939 0.414102 0.637939H23.5865C23.815 0.637939 24.0003 0.823236 24.0003 1.05175L24.0002 5.87935Z" fill="#FAB446"/>
    <path d="M23.5864 16.3621H0.414102C0.185586 16.3621 0.000289917 16.1768 0.000289917 15.9483V11.1207H24.0002V15.9483C24.0002 16.1768 23.8149 16.3621 23.5864 16.3621Z" fill="#73AF00"/>
    <path d="M24.0002 5.87927H0.000289917V11.1204H24.0002V5.87927Z" fill="#F5F5F5"/>
    <path d="M12.0002 10.7242C10.7737 10.7242 9.77606 9.72656 9.77606 8.50012C9.77606 7.27369 10.7737 6.276 12.0002 6.276C13.2266 6.276 14.2243 7.27369 14.2243 8.50012C14.2243 9.72656 13.2266 10.7242 12.0002 10.7242ZM12.0002 6.68977C11.0018 6.68977 10.1898 7.50178 10.1898 8.50012C10.1898 9.49846 11.0018 10.3105 12.0002 10.3105C12.9985 10.3105 13.8105 9.49846 13.8105 8.50012C13.8105 7.50178 12.9985 6.68977 12.0002 6.68977Z" fill="#41479B"/>
    <path d="M12.0002 8.75233C12.1395 8.75233 12.2524 8.63944 12.2524 8.50019C12.2524 8.36093 12.1395 8.24805 12.0002 8.24805C11.861 8.24805 11.7481 8.36093 11.7481 8.50019C11.7481 8.63944 11.861 8.75233 12.0002 8.75233Z" fill="#41479B"/>
    <path d="M12.0004 8.53805L11.3597 8.60274L9.98322 8.53805V8.46239L11.3597 8.39771L12.0004 8.46239V8.53805Z" fill="#41479B"/>
    <path d="M12.0004 8.53805L12.6412 8.60274L14.0176 8.53805V8.46239L12.6412 8.39771L12.0004 8.46239V8.53805Z" fill="#41479B"/>
    <path d="M11.9624 8.50013L11.8977 7.85935L11.9624 6.48291H12.0381L12.1028 7.85935L12.0381 8.50013H11.9624Z" fill="#41479B"/>
    <path d="M11.9624 8.50012L11.8977 9.1409L11.9624 10.5173H12.0381L12.1028 9.1409L12.0381 8.50012H11.9624Z" fill="#41479B"/>
    <path d="M11.9736 8.52684L11.4748 8.11954L10.5472 7.10048L10.6007 7.047L11.6197 7.97456L12.027 8.4734L11.9736 8.52684Z" fill="#41479B"/>
    <path d="M11.9737 8.52683L12.381 9.02567L13.4 9.95323L13.4535 9.89975L12.526 8.88068L12.0271 8.47339L11.9737 8.52683Z" fill="#41479B"/>
    <path d="M11.9737 8.4734L12.381 7.97456L13.4 7.047L13.4535 7.10048L12.526 8.11954L12.0271 8.52684L11.9737 8.4734Z" fill="#41479B"/>
    <path d="M11.9736 8.47339L11.4748 8.88068L10.5472 9.89975L10.6007 9.95323L11.6197 9.02567L12.027 8.52683L11.9736 8.47339Z" fill="#41479B"/>
    <path d="M12.0147 8.53515L11.4474 8.84012L10.1511 9.30708L10.1221 9.23719L11.369 8.65069L11.9857 8.46521L12.0147 8.53515Z" fill="#41479B"/>
    <path d="M12.0147 8.53511L12.6314 8.34963L13.8783 7.76313L13.8494 7.69324L12.553 8.1602L11.9857 8.46517L12.0147 8.53511Z" fill="#41479B"/>
    <path d="M11.9652 8.51469L11.6602 7.94741L11.1933 6.65104L11.2632 6.62207L11.8497 7.86899L12.0351 8.48572L11.9652 8.51469Z" fill="#41479B"/>
    <path d="M11.9653 8.51469L12.1507 9.13142L12.7372 10.3783L12.8071 10.3494L12.3402 9.053L12.0352 8.48572L11.9653 8.51469Z" fill="#41479B"/>
    <path d="M11.9857 8.53511L11.369 8.34963L10.1221 7.76313L10.1511 7.69324L11.4474 8.1602L12.0147 8.46517L11.9857 8.53511Z" fill="#41479B"/>
    <path d="M11.9857 8.53515L12.553 8.84012L13.8494 9.30708L13.8783 9.23719L12.6314 8.65069L12.0147 8.46521L11.9857 8.53515Z" fill="#41479B"/>
    <path d="M11.9653 8.48572L12.1507 7.86899L12.7372 6.62207L12.8071 6.65104L12.3402 7.94741L12.0352 8.51469L11.9653 8.48572Z" fill="#41479B"/>
    <path d="M11.9652 8.48572L11.6602 9.053L11.1933 10.3494L11.2632 10.3783L11.8497 9.13142L12.0351 8.51469L11.9652 8.48572Z" fill="#41479B"/>
    <path d="M12.0003 8.84016C12.1882 8.84016 12.3405 8.68788 12.3405 8.50004C12.3405 8.31219 12.1882 8.15991 12.0003 8.15991C11.8125 8.15991 11.6602 8.31219 11.6602 8.50004C11.6602 8.68788 11.8125 8.84016 12.0003 8.84016Z" fill="#F5F5F5"/>
    <path d="M12.0003 8.70405C12.113 8.70405 12.2043 8.61274 12.2043 8.5001C12.2043 8.38746 12.113 8.29614 12.0003 8.29614C11.8877 8.29614 11.7964 8.38746 11.7964 8.5001C11.7964 8.61274 11.8877 8.70405 12.0003 8.70405Z" fill="#41479B"/>
</svg>
