<svg width="24" height="17" viewBox="0 0 24 17" fill="none" xmlns="http://www.w3.org/2000/svg">
    <path d="M23.5868 16.3621H0.414453C0.185937 16.3621 0.000640869 16.1768 0.000640869 15.9483V1.05175C0.000640869 0.823236 0.185937 0.637939 0.414453 0.637939H23.5868C23.8153 0.637939 24.0006 0.823236 24.0006 1.05175V15.9483C24.0006 16.1768 23.8153 16.3621 23.5868 16.3621Z" fill="#FF4B55"/>
    <path d="M8.69027 0.638062H0.414453C0.185937 0.638062 0.000640869 0.823311 0.000640869 1.05183V15.9483C0.000640869 16.1769 0.185937 16.3622 0.414453 16.3622H8.69031V0.638062H8.69027Z" fill="#73AF00"/>
    <path d="M8.69365 12.221C10.7487 12.221 12.4146 10.5551 12.4146 8.50011C12.4146 6.44509 10.7487 4.77917 8.69365 4.77917C6.63863 4.77917 4.97272 6.44509 4.97272 8.50011C4.97272 10.5551 6.63863 12.221 8.69365 12.221Z" fill="#FFE15A"/>
    <path d="M9.93493 7.25873V8.91388C9.93493 9.5984 9.37805 10.1553 8.69354 10.1553C8.00902 10.1553 7.45215 9.5984 7.45215 8.91388V7.25873H9.93493ZM10.3487 6.43115H7.03834C6.80982 6.43115 6.62453 6.61645 6.62453 6.84496V8.91393C6.62453 10.0566 7.55087 10.9829 8.69349 10.9829C9.83611 10.9829 10.7625 10.0566 10.7625 8.91393V6.84496C10.7625 6.61645 10.5772 6.43115 10.3487 6.43115Z" fill="#FF4B55"/>
    <path d="M9.93499 7.25867V8.91382C9.93499 9.59833 9.37811 10.1552 8.6936 10.1552C8.00908 10.1552 7.45221 9.59833 7.45221 8.91382V7.25867H9.93499Z" fill="#F5F5F5"/>
    <path d="M7.03433 7.05175C7.1486 7.05175 7.24123 6.95912 7.24123 6.84485C7.24123 6.73057 7.1486 6.63794 7.03433 6.63794C6.92006 6.63794 6.82742 6.73057 6.82742 6.84485C6.82742 6.95912 6.92006 7.05175 7.03433 7.05175Z" fill="#FFE15A"/>
    <path d="M10.3445 7.05175C10.4588 7.05175 10.5514 6.95912 10.5514 6.84485C10.5514 6.73057 10.4588 6.63794 10.3445 6.63794C10.2302 6.63794 10.1376 6.73057 10.1376 6.84485C10.1376 6.95912 10.2302 7.05175 10.3445 7.05175Z" fill="#FFE15A"/>
    <path d="M7.03433 8.7069C7.1486 8.7069 7.24123 8.61427 7.24123 8.5C7.24123 8.38573 7.1486 8.29309 7.03433 8.29309C6.92006 8.29309 6.82742 8.38573 6.82742 8.5C6.82742 8.61427 6.92006 8.7069 7.03433 8.7069Z" fill="#FFE15A"/>
    <path d="M10.3445 8.7069C10.4588 8.7069 10.5514 8.61427 10.5514 8.5C10.5514 8.38573 10.4588 8.29309 10.3445 8.29309C10.2302 8.29309 10.1376 8.38573 10.1376 8.5C10.1376 8.61427 10.2302 8.7069 10.3445 8.7069Z" fill="#FFE15A"/>
    <path d="M8.68951 7.05175C8.80378 7.05175 8.89642 6.95912 8.89642 6.84485C8.89642 6.73057 8.80378 6.63794 8.68951 6.63794C8.57524 6.63794 8.4826 6.73057 8.4826 6.84485C8.4826 6.95912 8.57524 7.05175 8.68951 7.05175Z" fill="#FFE15A"/>
    <path d="M9.93168 10.2327C10.046 10.2327 10.1386 10.14 10.1386 10.0258C10.1386 9.91148 10.046 9.81885 9.93168 9.81885C9.81741 9.81885 9.72478 9.91148 9.72478 10.0258C9.72478 10.14 9.81741 10.2327 9.93168 10.2327Z" fill="#FFE15A"/>
    <path d="M7.47172 10.2327C7.58599 10.2327 7.67863 10.14 7.67863 10.0258C7.67863 9.91148 7.58599 9.81885 7.47172 9.81885C7.35745 9.81885 7.26482 9.91148 7.26482 10.0258C7.26482 10.14 7.35745 10.2327 7.47172 10.2327Z" fill="#FFE15A"/>
    <path d="M8.96027 8.39502V8.75136C8.96027 8.89874 8.84036 9.01864 8.69299 9.01864C8.54561 9.01864 8.4257 8.89874 8.4257 8.75136V8.39502H8.96027Z" fill="#41479B"/>
    <path d="M8.96027 7.55029V7.90664C8.96027 8.05401 8.84036 8.17392 8.69299 8.17392C8.54561 8.17392 8.4257 8.05401 8.4257 7.90664V7.55029H8.96027Z" fill="#41479B"/>
    <path d="M8.96027 9.24854V9.60488C8.96027 9.75225 8.84036 9.87216 8.69299 9.87216C8.54561 9.87216 8.4257 9.75225 8.4257 9.60488V9.24854H8.96027Z" fill="#41479B"/>
    <path d="M9.68019 8.39502V8.75136C9.68019 8.89874 9.56029 9.01864 9.41291 9.01864C9.26554 9.01864 9.14563 8.89874 9.14563 8.75136V8.39502H9.68019Z" fill="#41479B"/>
    <path d="M8.24043 8.39502V8.75136C8.24043 8.89874 8.12053 9.01864 7.97315 9.01864C7.82578 9.01864 7.70587 8.89874 7.70587 8.75136V8.39502H8.24043Z" fill="#41479B"/>
</svg>
