<svg width="24" height="17" viewBox="0 0 24 17" fill="none" xmlns="http://www.w3.org/2000/svg">
    <path d="M23.5881 16.3609H0.413049C0.183362 16.3609 0.000549316 16.1734 0.000549316 15.9484V1.05154C0.000549316 0.82185 0.188049 0.639038 0.413049 0.639038H23.5834C23.8131 0.639038 23.9959 0.826538 23.9959 1.05154V15.9484C24.0006 16.1781 23.8131 16.3609 23.5881 16.3609Z" fill="#F5F5F5"/>
    <path d="M23.5885 16.361H0.413507C0.18382 16.361 0.00100708 16.1735 0.00100708 15.9485V13.8813H24.001V15.9485C24.001 16.1782 23.8135 16.361 23.5885 16.361Z" fill="#FF4B55"/>
    <path d="M0.413507 0.63916H23.5838C23.8135 0.63916 23.9963 0.82666 23.9963 1.05166V3.11885H0.00100708V1.05166C0.00100708 0.821973 0.188507 0.63916 0.413507 0.63916Z" fill="#FF4B55"/>
    <path d="M24.0005 5.60315H0.000549316V11.3969H24.0005V5.60315Z" fill="#41479B"/>
</svg>
