<svg width="24" height="17" viewBox="0 0 24 17" fill="none" xmlns="http://www.w3.org/2000/svg">
    <path d="M23.5864 16.3621H0.414071C0.185556 16.3621 0.000259399 16.1768 0.000259399 15.9483V1.05175C0.000259399 0.823236 0.185556 0.637939 0.414071 0.637939H23.5864C23.815 0.637939 24.0003 0.823236 24.0003 1.05175V15.9483C24.0002 16.1768 23.8149 16.3621 23.5864 16.3621Z" fill="#FF4B55"/>
    <path d="M12.1933 3.81115L13.2999 7.12942L16.7978 7.15651C16.9934 7.15801 17.0744 7.40762 16.9171 7.52383L14.1033 9.60174L15.1584 12.9368C15.2174 13.1232 15.0051 13.2775 14.8459 13.1638L12.0002 11.1297L9.15442 13.1638C8.99532 13.2775 8.78298 13.1232 8.84195 12.9368L9.89706 9.60174L7.0832 7.52383C6.92584 7.40767 7.00698 7.15801 7.20255 7.15651L10.7004 7.12942L11.8071 3.81115C11.869 3.62561 12.1314 3.62561 12.1933 3.81115Z" fill="#FFE15A"/>
</svg>
