<svg width="24" height="25" viewBox="0 0 24 25" fill="none" xmlns="http://www.w3.org/2000/svg">
    <path d="M0.152656 20.2621L12 12.5001L0.152656 4.73804C0.0614836 4.81393 3.05176e-05 4.9239 3.05176e-05 5.05177V19.9483C3.05176e-05 20.0762 0.0614836 20.1862 0.152656 20.2621Z" fill="#F5F5F5"/>
    <path d="M0.152374 20.262C0.224093 20.3217 0.312921 20.3621 0.413515 20.3621H23.5859C23.8145 20.3621 23.9997 20.1768 23.9997 19.9482V12.5H11.9997L0.152374 20.262Z" fill="#FF4B55"/>
    <path d="M0.152374 4.73797C0.224093 4.67825 0.312921 4.63794 0.413515 4.63794H23.5859C23.8145 4.63794 23.9997 4.82324 23.9997 5.05175V12.5H11.9997L0.152374 4.73797Z" fill="#41479B"/>
    <path d="M4.34574 13.8448C5.08848 13.8448 5.69059 13.2427 5.69059 12.5C5.69059 11.7573 5.08848 11.1552 4.34574 11.1552C3.60301 11.1552 3.0009 11.7573 3.0009 12.5C3.0009 13.2427 3.60301 13.8448 4.34574 13.8448Z" fill="#FFE15A"/>
    <path d="M4.34582 12.4999L3.84149 10.4827L4.34582 9.8103L4.8501 10.4827L4.34582 12.4999Z" fill="#FFE15A"/>
    <path d="M4.34582 12.5L4.8501 14.5172L4.34582 15.1896L3.84149 14.5172L4.34582 12.5Z" fill="#FFE15A"/>
    <path d="M4.34569 12.4999L2.32843 13.0043L1.65601 12.4999L2.32843 11.9956L4.34569 12.4999Z" fill="#FFE15A"/>
    <path d="M4.34579 12.4999L6.36301 11.9956L7.03544 12.4999L6.36301 13.0043L4.34579 12.4999Z" fill="#FFE15A"/>
    <path d="M4.34579 12.4999L5.41558 10.7169L6.24765 10.598L6.12878 11.4301L4.34579 12.4999Z" fill="#FFE15A"/>
    <path d="M4.34589 12.5L3.27606 14.283L2.44398 14.4019L2.56291 13.5698L4.34589 12.5Z" fill="#FFE15A"/>
    <path d="M4.34589 12.4999L2.56291 11.4301L2.44398 10.598L3.27606 10.7169L4.34589 12.4999Z" fill="#FFE15A"/>
    <path d="M4.34579 12.5L6.12878 13.5698L6.24765 14.4019L5.41558 14.283L4.34579 12.5Z" fill="#FFE15A"/>
    <path d="M1.10977 6.6731L1.1799 7.19623L0.707587 7.43192C0.646462 7.46243 0.659306 7.55323 0.726571 7.56551L1.24576 7.66048L1.32395 8.18248C1.33407 8.25007 1.4244 8.26587 1.45688 8.20568L1.70767 7.74125L2.22826 7.82815C2.29567 7.83945 2.3386 7.75836 2.29145 7.70895L1.92723 7.32692L2.17074 6.85864C2.20229 6.79803 2.13845 6.73212 2.07685 6.7617L1.60098 6.99007L1.2309 6.61371C1.18309 6.56506 1.10073 6.60542 1.10977 6.6731Z" fill="#FFE15A"/>
    <path d="M1.31825 16.8549L1.22966 17.3753L0.708691 17.4599C0.641237 17.4708 0.626566 17.5614 0.687081 17.593L1.15457 17.8381L1.07408 18.3597C1.06367 18.4272 1.14519 18.4691 1.19408 18.4214L1.57157 18.0525L2.04285 18.2903C2.10388 18.3211 2.16894 18.2564 2.13866 18.1952L1.90447 17.7222L2.27619 17.3475C2.32428 17.299 2.28303 17.2172 2.21535 17.227L1.69307 17.3036L1.45157 16.8342C1.4203 16.7735 1.32964 16.7875 1.31825 16.8549Z" fill="#FFE15A"/>
    <path d="M9.5041 11.7291L9.2003 12.1607L8.69358 12.013C8.628 11.9939 8.57579 12.0693 8.61675 12.124L8.9334 12.5463L8.63635 12.9826C8.59791 13.0391 8.65346 13.112 8.71814 13.0899L9.2176 12.9193L9.54075 13.3366C9.58261 13.3907 9.66915 13.3603 9.66811 13.292L9.66015 12.7643L10.1569 12.5859C10.2212 12.5628 10.2191 12.4711 10.1538 12.451L9.64941 12.2954L9.63329 11.7679C9.63132 11.6995 9.54343 11.6731 9.5041 11.7291Z" fill="#FFE15A"/>
</svg>
