<svg width="24" height="17" viewBox="0 0 24 17" fill="none" xmlns="http://www.w3.org/2000/svg">
    <path d="M23.5866 16.3621H0.414269C0.185754 16.3621 0.000457764 16.1768 0.000457764 15.9483V1.05175C0.000457764 0.823236 0.185754 0.637939 0.414269 0.637939H23.5866C23.8152 0.637939 24.0005 0.823236 24.0005 1.05175V15.9483C24.0004 16.1768 23.8151 16.3621 23.5866 16.3621Z" fill="#FF4B55"/>
    <path d="M6.22135 8.49992C6.22135 10.3294 7.70409 11.8122 9.53198 11.8122C10.2132 11.8122 10.8414 11.6029 11.3646 11.2481C11.4439 11.1944 11.5354 11.298 11.4691 11.367C10.7184 12.1489 9.66721 12.6379 8.49755 12.6379C6.12305 12.6379 4.2159 10.6362 4.36997 8.22762C4.50455 6.12481 6.24792 4.43638 8.35383 4.36452C9.57961 4.32266 10.6851 4.81808 11.4662 5.63019C11.5332 5.69985 11.4419 5.80499 11.3618 5.7508C10.8392 5.3968 10.212 5.18764 9.53198 5.18764C7.70414 5.18764 6.22135 6.67376 6.22135 8.49992Z" fill="#F5F5F5"/>
    <path d="M13.7673 7.93063L13.1187 7.08215C13.0825 7.03471 13.0066 7.06073 13.0072 7.12045L13.0167 8.1884L12.0093 8.54305C11.9529 8.56288 11.9543 8.64299 12.0113 8.66094L13.0298 8.98199L13.0559 10.0497C13.0573 10.1093 13.134 10.1328 13.1686 10.0842L13.7887 9.21468L14.8122 9.51988C14.8694 9.53694 14.9154 9.47136 14.8799 9.42336L14.2445 8.5649L14.851 7.68585C14.8849 7.63673 14.8367 7.5727 14.7801 7.59163L13.7673 7.93063Z" fill="#F5F5F5"/>
</svg>
