<svg width="24" height="17" viewBox="0 0 24 17" fill="none" xmlns="http://www.w3.org/2000/svg">
    <g clip-path="url(#clip0_1353_35918)">
        <rect y="0.5" width="24" height="16" rx="0.5" fill="#F93939"/>
        <path d="M21.7143 0.5H2.28571C1.02335 0.5 0 1.52335 0 2.78571V15.3571C0 16.6195 1.02335 17.6429 2.28571 17.6429H21.7143C22.9767 17.6429 24 16.6195 24 15.3571V2.78571C24 1.52335 22.9767 0.5 21.7143 0.5Z" fill="#F93939"/>
        <path fill-rule="evenodd" clip-rule="evenodd" d="M4.71771 7.33429L3.03771 8.21771L3.35771 6.34686L2 5.02114L3.87771 4.75029L4.71771 3.04743L5.55657 4.75029L7.43429 5.02114L6.07429 6.34686L6.39657 8.21657L4.71771 7.33429ZM8.72 2.5H9.86286V3.64286H8.72V2.5ZM9.86286 4.78571H11.0057V5.92857H9.86286V4.78571ZM9.86286 7.07143H11.0057V8.21429H9.86286V7.07143ZM8.72 9.35714H9.86286V10.5H8.72V9.35714Z" fill="#FFDA2C"/>
    </g>
    <defs>
        <clipPath id="clip0_1353_35918">
            <rect y="0.5" width="24" height="16" rx="0.5" fill="white"/>
        </clipPath>
    </defs>
</svg>
